<svg id="Logotipo" xmlns="http://www.w3.org/2000/svg" xmlns:xlink="http://www.w3.org/1999/xlink" viewBox="0 0 801.5 761.67"><defs><style>.cls-1{fill:url(#linear-gradient);}.cls-2{fill:none;stroke:#231f20;stroke-miterlimit:10;stroke-width:3px;}</style><linearGradient id="linear-gradient" x1="100.23" y1="440" x2="897.52" y2="440" gradientUnits="userSpaceOnUse"><stop offset="0" stop-color="#ff3c00"/><stop offset="0.35" stop-color="#2b201f"/><stop offset="0.5"/><stop offset="0.65" stop-color="#231f20"/><stop offset="1" stop-color="#ff3c00"/></linearGradient></defs><g id="Logo"><path id="Logo-2" data-name="Logo" class="cls-1" d="M555.82,140.69V607.33a20.76,20.76,0,0,1-11.47,18.57L508.15,644a20.69,20.69,0,0,1-18.56,0l-36.2-18.09a20.76,20.76,0,0,1-11.47-18.57V141.19a20.75,20.75,0,0,0-30-18.56l-72.39,36.2A20.74,20.74,0,0,0,328,177.39V343.14a20.75,20.75,0,0,1-20.75,20.75H234.88a20.76,20.76,0,0,1-20.76-20.75V249.4a20.76,20.76,0,0,0-30-18.57L111.7,267a20.76,20.76,0,0,0-11.47,18.56V556.08a20.74,20.74,0,0,0,11.47,18.56l72.39,36.2a20.75,20.75,0,0,0,30-18.56V498.54a20.76,20.76,0,0,1,20.76-20.75h72.39A20.75,20.75,0,0,1,328,498.54V664.28a20.76,20.76,0,0,0,11.48,18.57l150.09,75a20.76,20.76,0,0,0,18.56,0l150.1-75a20.77,20.77,0,0,0,11.47-18.57V498.54a20.75,20.75,0,0,1,20.75-20.75h72.4a20.75,20.75,0,0,1,20.75,20.75v93.74a20.75,20.75,0,0,0,30,18.56l72.4-36.2a20.74,20.74,0,0,0,11.47-18.56V285.79A20.76,20.76,0,0,0,885.8,267.1L585.6,122A20.75,20.75,0,0,0,555.82,140.69Zm207,223.2h-72.4a20.75,20.75,0,0,1-20.75-20.75V310.56A20.76,20.76,0,0,1,699,291.63l72.39,32.58a20.75,20.75,0,0,1,12.24,18.93h0A20.75,20.75,0,0,1,762.87,363.89Z" transform="translate(-98.73 -118.42)"/><path id="Outline" class="cls-2" d="M555.82,140.69V607.33a20.76,20.76,0,0,1-11.47,18.57L508.15,644a20.69,20.69,0,0,1-18.56,0l-36.2-18.09a20.76,20.76,0,0,1-11.47-18.57V141.19a20.75,20.75,0,0,0-30-18.56l-72.39,36.2A20.74,20.74,0,0,0,328,177.39V343.14a20.75,20.75,0,0,1-20.75,20.75H234.88a20.76,20.76,0,0,1-20.76-20.75V249.4a20.76,20.76,0,0,0-30-18.57L111.7,267a20.76,20.76,0,0,0-11.47,18.56V556.08a20.74,20.74,0,0,0,11.47,18.56l72.39,36.2a20.75,20.75,0,0,0,30-18.56V498.54a20.76,20.76,0,0,1,20.76-20.75h72.39A20.75,20.75,0,0,1,328,498.54V664.28a20.76,20.76,0,0,0,11.48,18.57l150.09,75a20.76,20.76,0,0,0,18.56,0l150.1-75a20.77,20.77,0,0,0,11.47-18.57V498.54a20.75,20.75,0,0,1,20.75-20.75h72.4a20.75,20.75,0,0,1,20.75,20.75v93.74a20.75,20.75,0,0,0,30,18.56l72.4-36.2a20.74,20.74,0,0,0,11.47-18.56V285.79A20.76,20.76,0,0,0,885.8,267.1L585.6,122A20.75,20.75,0,0,0,555.82,140.69Zm207,223.2h-72.4a20.75,20.75,0,0,1-20.75-20.75V310.56A20.76,20.76,0,0,1,699,291.63l72.39,32.58a20.75,20.75,0,0,1,12.24,18.93h0A20.75,20.75,0,0,1,762.87,363.89Z" transform="translate(-98.73 -118.42)"/></g><g id="Hector"><path d="M151.46,880c-6.87-.68-6.43-4.9-6.43-10.94V850.67H115v29.41c-14.09,0-15.2-.45-15.2-11.05V810.08c14,0,15.09.35,15.09,10.95v17.1h30.06v-28c14.09,0,15.31.35,15.31,10.95v59.05C155.46,880.08,153.13,880.08,151.46,880Z" transform="translate(-98.73 -118.42)"/><path d="M183.7,880c-2.8,0-8.85.45-11.32-1.48s-2.12-6.84-2.12-9.69V821.25c0-10.82,1.12-11.17,13.44-11.17h26.43c5.6,0,8.4.23,9.74,1.6,2.24,2.16,1.68,8.43,1.68,11.05H185.26v15.38H207c5.49,0,8.18.23,9.52,1.6,2.24,2.16,1.68,8.31,1.68,10.93H185.26v16.64h24.08c5.94,0,8.85.34,10.42,1.59,2.35,2.28,1.79,8.43,1.79,11.17Z" transform="translate(-98.73 -118.42)"/><path d="M265.91,880.08c-28.86,0-35.68-16.42-35.68-35s6.94-35,35.68-35h24.2c0,2.61.59,8.84-1.56,11.11-1.44,1.35-4.31,1.58-9.94,1.58h-12.7c-3.23,0-14.37-.68-16.88,2.15-2.88,3.17-2.28,16.65-2.28,20.17,0,13.47,3.36,22.31,19.16,22.31h12c11.5,0,12.34.68,12.34,12.68Z" transform="translate(-98.73 -118.42)"/><path d="M309.79,810.08h40.44c0,4.11,0,5.82-.11,7.19a6.2,6.2,0,0,1-1.33,3.87c-1.24,1.37-3.71,1.6-8.65,1.6h-7.92v57.34c-12.86,0-13.68-.45-13.68-10.94v-46.4H300.23C300.23,811,300.84,810.08,309.79,810.08Z" transform="translate(-98.73 -118.42)"/><path d="M390.18,880.08c-24.12,0-29.95-16.69-29.95-34.94s5.93-35.06,29.95-35.06c24.31,0,30.05,16.7,30.05,35.17C420.23,863.39,414.49,880.08,390.18,880.08Zm16.72-34.83c0-13.35-2.91-22.59-16.72-22.59-16.63,0-16.53.11-16.53,22.48,0,13.24,3,22.37,16.53,22.37,16.82,0,16.63-.11,16.63-22.26Z" transform="translate(-98.73 -118.42)"/><path d="M478.71,880c-7.78-.11-10-1.36-15-7.74l-15.24-19.59c-2.74-3.53-2.41-10.25,3.95-10.25h4.16c7.24,0,10.86.23,12.61-1.14,1.65-1.14,1.32-7.18,1.32-8.88,0-4.33-1.32-9.8-14.14-9.8H445.16V880c-3,0-10.42.57-12.94-1.48-1.64-1.37-2-4.1-2-9.57V821.13c0-5.58-.77-10.25,6.36-10.93,1.64-.12,3.84-.12,6.8-.12H455.8c26.42,0,29.71,13,29.71,22.33,0,16.06-9.21,21.75-19.63,21.75L490.23,880Z" transform="translate(-98.73 -118.42)"/></g><g id="Adrian"><path d="M571,880c-6.33-.45-7.08-2.73-9-8l-1.82-4.89h-30l-1.6,4.89c-2.9,8.06-3,8.06-18.33,8.06l22.83-61.36c2.89-8.18,3.54-8.64,12.11-8.64h8.58l26.48,70C575,880.08,572.61,880.08,571,880Zm-25.84-56.59-10.93,32.16h22Z" transform="translate(-98.73 -118.42)"/><path d="M616.62,880.08H603.44c-6.37,0-9.45-.22-11.1-1.48-2.52-2-2.09-6.71-2.09-9.44v-48c0-10.82,1.21-11,13.19-11h14.27c21.31,0,32.52,12.41,32.52,34.49C650.23,866.43,638.14,880.08,616.62,880.08Zm19-35.62c0-17.19-6.59-21.85-20.43-21.85H605v44.95h9.56c21.09,0,21,0,21-23.1Z" transform="translate(-98.73 -118.42)"/><path d="M708.71,880c-7.78-.11-10-1.36-15-7.74l-15.24-19.59c-2.74-3.53-2.41-10.25,3.95-10.25h4.16c7.24,0,10.86.23,12.61-1.14,1.65-1.14,1.32-7.18,1.32-8.88,0-4.33-1.32-9.8-14.14-9.8H675.16V880c-3,0-10.42.57-12.94-1.48-1.64-1.37-2-4.1-2-9.57V821.13c0-5.58-.77-10.25,6.36-10.93,1.64-.12,3.84-.12,6.8-.12H685.8c26.42,0,29.71,13,29.71,22.33,0,16.06-9.21,21.75-19.63,21.75L720.23,880Z" transform="translate(-98.73 -118.42)"/><path d="M732.55,869.25V810.08c14.12,0,15.35.35,15.35,10.38v59.62C733.79,880.08,732.55,879.63,732.55,869.25Z" transform="translate(-98.73 -118.42)"/><path d="M821,880c-6.33-.45-7.08-2.73-9-8l-1.82-4.89h-30l-1.6,4.89c-2.9,8.06-3,8.06-18.33,8.06l22.83-61.36c2.89-8.18,3.54-8.64,12.11-8.64h8.58l26.48,70C825,880.08,822.61,880.08,821,880Zm-25.84-56.59-10.93,32.16h22Z" transform="translate(-98.73 -118.42)"/><path d="M892.7,880.08c-8.75,0-9-1.13-13.42-8.18l-25.12-41.59v49.77c-12.82,0-13.93-.45-13.93-10.9V810.09h7.22c7.83,0,8.94-.34,13.72,7.5l25.12,41.93V819.86c0-9.43,1.33-9.77,13.94-9.77v70Z" transform="translate(-98.73 -118.42)"/></g></svg>